# Blender v2.81 (sub 16) OBJ File: ''
# www.blender.org
mtllib Benchmark.mtl
o bench1_Mesh
v -0.371500 0.028808 -0.207812
v -0.371500 0.028808 0.207812
v -0.371500 0.410058 -0.207812
v -0.371500 0.410058 0.207812
v -0.546500 0.028808 -0.207812
v -0.546500 0.028808 0.207812
v -0.546500 0.410058 -0.207812
v -0.546500 0.410058 0.207812
v -0.546500 0.028808 0.139512
v -0.546500 0.341758 0.139512
v -0.546500 0.341758 -0.139513
v -0.546500 0.028808 -0.139513
v -0.371500 0.028808 0.139512
v -0.371500 0.341758 0.139512
v -0.371500 0.341758 -0.139512
v -0.371500 0.028808 -0.139512
v -0.747340 0.411222 0.098447
v -0.752714 0.411222 0.220926
v -0.752714 0.466188 0.212616
v -0.747340 0.466188 0.106757
v 0.752714 0.411222 0.098447
v 0.752714 0.411222 0.220926
v 0.752714 0.470828 0.212616
v 0.752714 0.470828 0.106757
v -0.752714 0.411450 -0.052441
v -0.752714 0.411450 0.070037
v -0.752714 0.468149 0.061727
v -0.752714 0.468149 -0.044131
v 0.745312 0.411222 -0.052441
v 0.745312 0.411222 0.070037
v 0.745312 0.467029 0.061727
v 0.745312 0.467029 -0.044131
v -0.744844 0.411222 -0.210753
v -0.744844 0.411222 -0.091557
v -0.744844 0.470828 -0.099866
v -0.744844 0.470828 -0.205725
v 0.752714 0.411222 -0.219835
v 0.752714 0.411222 -0.097357
v 0.752714 0.470828 -0.105666
v 0.752714 0.470828 -0.211525
v 0.371500 0.028808 -0.207813
v 0.371500 0.410058 -0.207813
v 0.546500 0.410058 -0.207812
v 0.546500 0.028808 -0.207812
v 0.371500 0.410058 0.207812
v 0.546500 0.410058 0.207812
v 0.371500 0.028808 0.207812
v 0.546500 0.028808 0.207812
v 0.371500 0.341758 0.139512
v 0.371500 0.028808 0.139512
v 0.371500 0.341758 -0.139513
v 0.371500 0.028808 -0.139513
v 0.546500 0.028808 -0.139512
v 0.546500 0.341758 -0.139512
v 0.546500 0.341758 0.139512
v 0.546500 0.028808 0.139512
vt 0.919317 0.524290
vt 0.891928 0.775289
vt 0.891928 0.524290
vt 0.752643 0.830069
vt 0.919317 0.830069
vt 0.752643 0.524290
vt 0.780033 0.775289
vt 0.919335 0.524267
vt 0.989514 0.469487
vt 0.989514 0.524267
vt 0.891945 0.775266
vt 0.891945 0.524267
vt 0.752660 0.830046
vt 0.919335 0.830046
vt 0.752660 0.524267
vt 0.780050 0.775266
vt 0.682481 0.524267
vt 0.752660 0.469488
vt 0.872121 0.374017
vt 0.997620 0.233659
vt 0.997620 0.374017
vt 0.760226 0.233659
vt 0.872121 0.233659
vt 0.634726 0.374017
vt 0.760226 0.374017
vt 0.919317 0.524290
vt 0.891928 0.775289
vt 0.891928 0.524290
vt 0.752643 0.830069
vt 0.919317 0.830069
vt 0.752643 0.524290
vt 0.780033 0.775289
vt 0.919335 0.524267
vt 0.989514 0.469487
vt 0.989514 0.524267
vt 0.891945 0.775266
vt 0.891945 0.524267
vt 0.919335 0.830046
vt 0.780050 0.775266
vt 0.752660 0.524267
vt 0.752660 0.830046
vt 0.682481 0.524267
vt 0.752660 0.469488
vt 0.872121 0.374017
vt 0.997620 0.233659
vt 0.997620 0.374017
vt 0.760226 0.374017
vt 0.872121 0.233659
vt 0.634726 0.374017
vt 0.760226 0.233659
vt 0.780033 0.524290
vt 0.919335 0.469487
vt 0.780050 0.524267
vt 0.682481 0.469488
vt 0.634726 0.233659
vt 0.780033 0.524290
vt 0.919335 0.469487
vt 0.780050 0.524267
vt 0.682481 0.469488
vt 0.634726 0.233659
vt 0.989514 0.830046
vt 0.752660 0.970404
vt 0.919335 0.970404
vt 0.682481 0.830046
vt 0.035800 0.459437
vt 0.011896 0.551005
vt 0.011896 0.452773
vt 0.639509 0.594034
vt 0.035800 0.544341
vt 0.639509 0.544341
vt 0.639509 0.459437
vt 0.663412 0.551005
vt 0.015224 0.093404
vt 0.618934 0.191637
vt 0.015224 0.191637
vt 0.639509 0.409744
vt 0.035800 0.409744
vt 0.035800 0.643731
vt 0.011897 0.735299
vt 0.011897 0.637067
vt 0.035800 0.778328
vt 0.639510 0.728635
vt 0.639510 0.778328
vt 0.663413 0.637067
vt 0.639510 0.643732
vt 0.015225 0.191694
vt 0.618934 0.289927
vt 0.015225 0.289927
vt 0.035800 0.594038
vt 0.639510 0.594038
vt 0.035800 0.728635
vt 0.035801 0.828013
vt 0.011897 0.919581
vt 0.011897 0.821348
vt 0.035801 0.962610
vt 0.639510 0.912916
vt 0.639510 0.962610
vt 0.663413 0.821348
vt 0.639510 0.828013
vt 0.015225 0.289287
vt 0.618934 0.387520
vt 0.015225 0.387520
vt 0.639510 0.778320
vt 0.035801 0.912916
vt 0.989514 0.830046
vt 0.752660 0.970404
vt 0.919335 0.970404
vt 0.682481 0.830046
vt 0.035800 0.594034
vt 0.663412 0.452773
vt 0.618934 0.093404
vt 0.663413 0.735300
vt 0.618934 0.191694
vt 0.663413 0.919581
vt 0.618934 0.289287
vt 0.035801 0.778320
vn 1.0000 0.0000 0.0000
vn 0.0000 -1.0000 -0.0000
vn -1.0000 0.0000 0.0000
vn 0.0000 0.0000 -1.0000
vn -0.0000 0.0000 1.0000
vn 0.0000 1.0000 0.0000
vn -0.9990 -0.0029 -0.0456
vn -0.9988 0.0032 -0.0485
vn -0.9990 -0.0066 -0.0438
vn -0.0004 0.1383 -0.9904
vn -0.0000 0.1492 -0.9888
vn -0.0004 0.1381 -0.9904
vn -0.0004 0.1383 0.9904
vn -0.0000 0.1492 0.9888
vn 0.0000 0.1495 0.9888
vn -0.0031 1.0000 -0.0000
vn -0.0031 1.0000 -0.0002
vn 0.0001 0.1451 -0.9894
vn 0.0000 0.1472 -0.9891
vn 0.0000 0.1473 -0.9891
vn -0.0002 -1.0000 0.0000
vn 0.0000 0.1472 0.9891
vn 0.0001 0.1451 0.9894
vn 0.0000 0.1473 0.9891
vn 0.0007 1.0000 0.0000
vn -0.0039 0.0854 -0.9963
vn -0.0060 0.1367 -0.9906
vn -0.0060 0.1381 -0.9904
vn 0.0038 0.1381 0.9904
vn -0.9987 0.0077 -0.0507
vn 0.0000 0.1495 -0.9888
vn -0.0004 0.1381 0.9904
vn 0.0001 0.1450 -0.9894
vn 0.0001 0.1450 0.9894
vn -0.0039 0.0841 -0.9965
usemtl bench1
s off
f 1/1/1 15/2/1 16/3/1
f 4/4/1 15/2/1 3/5/1
f 2/6/1 14/7/1 4/4/1
f 6/8/2 13/9/2 2/10/2
f 6/8/3 10/11/3 9/12/3
f 7/13/3 10/11/3 8/14/3
f 5/15/3 11/16/3 7/13/3
f 1/17/2 12/18/2 5/15/2
f 10/19/4 13/20/4 9/21/4
f 10/19/2 15/22/2 14/23/2
f 12/24/5 15/22/5 11/25/5
f 47/26/3 49/27/3 50/28/3
f 42/29/3 49/27/3 45/30/3
f 41/31/3 51/32/3 42/29/3
f 44/33/2 52/34/2 41/35/2
f 44/33/1 54/36/1 53/37/1
f 43/38/1 55/39/1 54/36/1
f 48/40/1 55/39/1 46/41/1
f 47/42/2 56/43/2 48/40/2
f 54/44/5 52/45/5 53/46/5
f 55/47/2 51/48/2 54/44/2
f 56/49/4 49/50/4 55/47/4
f 1/1/1 3/5/1 15/2/1
f 4/4/1 14/7/1 15/2/1
f 2/6/1 13/51/1 14/7/1
f 6/8/2 9/52/2 13/9/2
f 6/8/3 8/14/3 10/11/3
f 7/13/3 11/16/3 10/11/3
f 5/15/3 12/53/3 11/16/3
f 1/17/2 16/54/2 12/18/2
f 10/19/4 14/23/4 13/20/4
f 10/19/2 11/25/2 15/22/2
f 12/24/5 16/55/5 15/22/5
f 47/26/3 45/30/3 49/27/3
f 42/29/3 51/32/3 49/27/3
f 41/31/3 52/56/3 51/32/3
f 44/33/2 53/57/2 52/34/2
f 44/33/1 43/38/1 54/36/1
f 43/38/1 46/41/1 55/39/1
f 48/40/1 56/58/1 55/39/1
f 47/42/2 50/59/2 56/43/2
f 54/44/5 51/48/5 52/45/5
f 55/47/2 49/50/2 51/48/2
f 56/49/4 50/60/4 49/50/4
s 1
f 4/61/5 6/8/5 2/10/5
f 3/62/6 8/14/6 4/63/6
f 1/17/4 7/13/4 3/64/4
f 19/65/7 17/66/8 18/67/9
f 21/68/10 20/69/11 24/70/12
f 23/71/1 21/72/1 24/70/1
f 22/73/2 17/74/2 21/75/2
f 22/76/13 19/65/14 18/77/15
f 23/71/16 20/69/17 19/65/17
f 27/78/3 25/79/3 26/80/3
f 25/81/18 32/82/19 29/83/20
f 30/84/1 32/82/1 31/85/1
f 30/86/21 25/87/21 29/88/21
f 31/85/22 26/89/23 30/90/24
f 28/91/25 31/85/25 32/82/25
f 35/92/3 33/93/3 34/94/3
f 33/95/26 40/96/27 37/97/28
f 38/98/1 40/96/1 39/99/1
f 38/100/2 33/101/2 37/102/2
f 35/92/29 38/103/29 39/99/29
f 36/104/6 39/99/6 40/96/6
f 42/105/4 44/33/4 41/35/4
f 45/106/6 43/38/6 42/107/6
f 47/42/5 46/41/5 45/108/5
f 4/61/5 8/14/5 6/8/5
f 3/62/6 7/13/6 8/14/6
f 1/17/4 5/15/4 7/13/4
f 19/65/7 20/69/30 17/66/8
f 21/68/10 17/109/31 20/69/11
f 23/71/1 22/110/1 21/72/1
f 22/73/2 18/111/2 17/74/2
f 22/76/13 23/71/32 19/65/14
f 23/71/16 24/70/16 20/69/17
f 27/78/3 28/91/3 25/79/3
f 25/81/18 28/91/33 32/82/19
f 30/84/1 29/112/1 32/82/1
f 30/86/21 26/113/21 25/87/21
f 31/85/22 27/78/34 26/89/23
f 28/91/25 27/78/25 31/85/25
f 35/92/3 36/104/3 33/93/3
f 33/95/26 36/104/35 40/96/27
f 38/98/1 37/114/1 40/96/1
f 38/100/2 34/115/2 33/101/2
f 35/92/29 34/116/29 38/103/29
f 36/104/6 35/92/6 39/99/6
f 42/105/4 43/38/4 44/33/4
f 45/106/6 46/41/6 43/38/6
f 47/42/5 48/40/5 46/41/5
