# Blender v2.81 (sub 16) OBJ File: ''
# www.blender.org
mtllib Benchmark.mtl
o bench1_Mesh
v -0.371500 0.028808 -0.207812
v -0.371500 0.028808 0.207812
v -0.371500 0.410058 -0.207812
v -0.371500 0.410058 0.207812
v -0.546500 0.028808 -0.207812
v -0.546500 0.028808 0.207812
v -0.546500 0.410058 -0.207812
v -0.546500 0.410058 0.207812
v -0.546500 0.028808 0.139512
v -0.546500 0.341758 0.139512
v -0.546500 0.341758 -0.139513
v -0.546500 0.028808 -0.139513
v -0.371500 0.028808 0.139512
v -0.371500 0.341758 0.139512
v -0.371500 0.341758 -0.139512
v -0.371500 0.028808 -0.139512
v -0.747340 0.411222 0.098447
v -0.752714 0.411222 0.220926
v -0.752714 0.466188 0.212616
v -0.747340 0.466188 0.106757
v 0.752714 0.411222 0.098447
v 0.752714 0.411222 0.220926
v 0.752714 0.470828 0.212616
v 0.752714 0.470828 0.106757
v -0.752714 0.411450 -0.052441
v -0.752714 0.411450 0.070037
v -0.752714 0.468149 0.061727
v -0.752714 0.468149 -0.044131
v 0.745312 0.411222 -0.052441
v 0.745312 0.411222 0.070037
v 0.745312 0.467029 0.061727
v 0.745312 0.467029 -0.044131
v -0.744844 0.411222 -0.210753
v -0.744844 0.411222 -0.091557
v -0.744844 0.470828 -0.099866
v -0.744844 0.470828 -0.205725
v 0.752714 0.411222 -0.219835
v 0.752714 0.411222 -0.097357
v 0.752714 0.470828 -0.105666
v 0.752714 0.470828 -0.211525
v 0.371500 0.028808 -0.207813
v 0.371500 0.410058 -0.207813
v 0.546500 0.410058 -0.207812
v 0.546500 0.028808 -0.207812
v 0.371500 0.410058 0.207812
v 0.546500 0.410058 0.207812
v 0.371500 0.028808 0.207812
v 0.546500 0.028808 0.207812
v 0.371500 0.341758 0.139512
v 0.371500 0.028808 0.139512
v 0.371500 0.341758 -0.139513
v 0.371500 0.028808 -0.139513
v 0.546500 0.028808 -0.139512
v 0.546500 0.341758 -0.139512
v 0.546500 0.341758 0.139512
v 0.546500 0.028808 0.139512
vt 0.919317 0.524290
vt 0.919317 0.830069
vt 0.891928 0.775289
vt 0.891928 0.524290
vt 0.752643 0.830069
vt 0.780033 0.775289
vt 0.752643 0.524290
vt 0.780033 0.524290
vt 0.989514 0.524267
vt 0.919335 0.524267
vt 0.919335 0.469487
vt 0.989514 0.469487
vt 0.919335 0.830046
vt 0.891945 0.775266
vt 0.891945 0.524267
vt 0.752660 0.830046
vt 0.780050 0.775266
vt 0.752660 0.524267
vt 0.780050 0.524267
vt 0.682481 0.524267
vt 0.682481 0.469488
vt 0.752660 0.469488
vt 0.997620 0.374017
vt 0.872121 0.374017
vt 0.872121 0.233659
vt 0.997620 0.233659
vt 0.760226 0.374017
vt 0.760226 0.233659
vt 0.634726 0.374017
vt 0.634726 0.233659
vt 0.919317 0.524290
vt 0.919317 0.830069
vt 0.891928 0.775289
vt 0.891928 0.524290
vt 0.752643 0.830069
vt 0.780033 0.775289
vt 0.752643 0.524290
vt 0.780033 0.524290
vt 0.989514 0.524267
vt 0.919335 0.524267
vt 0.919335 0.469487
vt 0.989514 0.469487
vt 0.919335 0.830046
vt 0.891945 0.775266
vt 0.891945 0.524267
vt 0.752660 0.830046
vt 0.780050 0.775266
vt 0.752660 0.524267
vt 0.780050 0.524267
vt 0.682481 0.524267
vt 0.682481 0.469488
vt 0.752660 0.469488
vt 0.997620 0.374017
vt 0.872121 0.374017
vt 0.872121 0.233659
vt 0.997620 0.233659
vt 0.760226 0.374017
vt 0.760226 0.233659
vt 0.634726 0.374017
vt 0.634726 0.233659
vt 0.989514 0.830046
vt 0.919335 0.970404
vt 0.752660 0.970404
vt 0.682481 0.830046
vt 0.011896 0.452773
vt 0.035800 0.459437
vt 0.035800 0.544341
vt 0.011896 0.551005
vt 0.639509 0.544341
vt 0.639509 0.594034
vt 0.035800 0.594034
vt 0.639509 0.459437
vt 0.663412 0.452773
vt 0.663412 0.551005
vt 0.015224 0.191637
vt 0.015224 0.093404
vt 0.618934 0.093404
vt 0.618934 0.191637
vt 0.639509 0.409744
vt 0.035800 0.409744
vt 0.011897 0.637067
vt 0.035800 0.643731
vt 0.035800 0.728635
vt 0.011897 0.735299
vt 0.639510 0.778328
vt 0.035800 0.778328
vt 0.639510 0.728635
vt 0.639510 0.643732
vt 0.663413 0.637067
vt 0.663413 0.735300
vt 0.015225 0.289927
vt 0.015225 0.191694
vt 0.618934 0.191694
vt 0.618934 0.289927
vt 0.035800 0.594038
vt 0.639510 0.594038
vt 0.011897 0.821348
vt 0.035801 0.828013
vt 0.035801 0.912916
vt 0.011897 0.919581
vt 0.639510 0.962610
vt 0.035801 0.962610
vt 0.639510 0.912916
vt 0.639510 0.828013
vt 0.663413 0.821348
vt 0.663413 0.919581
vt 0.015225 0.387520
vt 0.015225 0.289287
vt 0.618934 0.289287
vt 0.618934 0.387520
vt 0.035801 0.778320
vt 0.639510 0.778320
vt 0.989514 0.830046
vt 0.919335 0.970404
vt 0.752660 0.970404
vt 0.682481 0.830046
vn 1.0000 0.0000 0.0000
vn 0.0000 -1.0000 0.0000
vn -1.0000 0.0000 0.0000
vn 0.0000 0.0000 -1.0000
vn -0.0000 -0.0000 1.0000
vn 0.0000 1.0000 -0.0000
vn -0.9989 -0.0000 -0.0470
vn -0.0002 0.1436 -0.9896
vn -0.0002 0.1436 0.9896
vn -0.0031 1.0000 -0.0001
vn 0.0001 0.1461 -0.9893
vn -0.0002 -1.0000 0.0000
vn 0.0001 0.1461 0.9893
vn 0.0007 1.0000 0.0000
vn -0.0049 0.1112 -0.9938
vn 0.0038 0.1381 0.9904
usemtl bench1
s off
f 1/1/1 3/2/1 15/3/1 16/4/1
f 3/2/1 4/5/1 14/6/1 15/3/1
f 4/5/1 2/7/1 13/8/1 14/6/1
f 2/9/2 6/10/2 9/11/2 13/12/2
f 6/10/3 8/13/3 10/14/3 9/15/3
f 8/13/3 7/16/3 11/17/3 10/14/3
f 7/16/3 5/18/3 12/19/3 11/17/3
f 5/18/2 1/20/2 16/21/2 12/22/2
f 9/23/4 10/24/4 14/25/4 13/26/4
f 10/24/2 11/27/2 15/28/2 14/25/2
f 11/27/5 12/29/5 16/30/5 15/28/5
f 47/31/3 45/32/3 49/33/3 50/34/3
f 45/32/3 42/35/3 51/36/3 49/33/3
f 42/35/3 41/37/3 52/38/3 51/36/3
f 41/39/2 44/40/2 53/41/2 52/42/2
f 44/40/1 43/43/1 54/44/1 53/45/1
f 43/43/1 46/46/1 55/47/1 54/44/1
f 46/46/1 48/48/1 56/49/1 55/47/1
f 48/48/2 47/50/2 50/51/2 56/52/2
f 53/53/5 54/54/5 51/55/5 52/56/5
f 54/54/2 55/57/2 49/58/2 51/55/2
f 55/57/4 56/59/4 50/60/4 49/58/4
s 1
f 2/9/5 4/61/5 8/13/5 6/10/5
f 4/62/6 3/63/6 7/16/6 8/13/6
f 3/64/4 1/20/4 5/18/4 7/16/4
f 18/65/7 19/66/7 20/67/7 17/68/7
f 24/69/8 21/70/8 17/71/8 20/67/8
f 24/69/1 23/72/1 22/73/1 21/74/1
f 21/75/2 22/76/2 18/77/2 17/78/2
f 22/79/9 23/72/9 19/66/9 18/80/9
f 23/72/10 24/69/10 20/67/10 19/66/10
f 26/81/3 27/82/3 28/83/3 25/84/3
f 29/85/11 25/86/11 28/83/11 32/87/11
f 31/88/1 30/89/1 29/90/1 32/87/1
f 29/91/12 30/92/12 26/93/12 25/94/12
f 31/88/13 27/82/13 26/95/13 30/96/13
f 32/87/14 28/83/14 27/82/14 31/88/14
f 34/97/3 35/98/3 36/99/3 33/100/3
f 37/101/15 33/102/15 36/99/15 40/103/15
f 39/104/1 38/105/1 37/106/1 40/103/1
f 37/107/2 38/108/2 34/109/2 33/110/2
f 39/104/16 35/98/16 34/111/16 38/112/16
f 40/103/6 36/99/6 35/98/6 39/104/6
f 41/39/4 42/113/4 43/43/4 44/40/4
f 42/114/6 45/115/6 46/46/6 43/43/6
f 45/116/5 47/50/5 48/48/5 46/46/5
